HIERARCHY
ROOT Hips
{
	OFFSET 0.000000 0.000000 0.000000
	CHANNELS 6 Xposition Yposition Zposition Zrotation Yrotation Xrotation 
	JOINT LHipJoint
	{
		OFFSET 0.000000 0.000000 0.000000
		CHANNELS 3 Zrotation Yrotation Xrotation
		JOINT LeftUpLeg
		{
			OFFSET 1.363060 -1.794630 0.839290
			CHANNELS 3 Zrotation Yrotation Xrotation
			JOINT LeftLeg
			{
				OFFSET 2.448110 -6.726130 0.000000
				CHANNELS 3 Zrotation Yrotation Xrotation
				JOINT LeftFoot
				{
					OFFSET 2.562200 -7.039590 0.000000
					CHANNELS 3 Zrotation Yrotation Xrotation
					JOINT LeftToeBase
					{
						OFFSET 0.157640 -0.433110 2.322550
						CHANNELS 3 Zrotation Yrotation Xrotation
						End Site
						{
							OFFSET 0.000000 0.000000 0.000000
						}
					}
				}
			}
		}
	}
	JOINT RHipJoint
	{
		OFFSET 0.000000 0.000000 0.000000
		CHANNELS 3 Zrotation Yrotation Xrotation
		JOINT RightUpLeg
		{
			OFFSET -1.305520 -1.794630 0.839290
			CHANNELS 3 Zrotation Yrotation Xrotation
			JOINT RightLeg
			{
				OFFSET -2.542530 -6.985550 0.000000
				CHANNELS 3 Zrotation Yrotation Xrotation
				JOINT RightFoot
				{
					OFFSET -2.568260 -7.056230 0.000000
					CHANNELS 3 Zrotation Yrotation Xrotation
					JOINT RightToeBase
					{
						OFFSET -0.164730 -0.452590 2.363150
						CHANNELS 3 Zrotation Yrotation Xrotation
						End Site
						{
							OFFSET 0.000000 0.000000 0.000000
						}
					}
				}
			}
		}
	}
	JOINT LowerBack
	{
		OFFSET 0.000000 0.000000 0.000000
		CHANNELS 3 Zrotation Yrotation Xrotation
		JOINT Spine
		{
			OFFSET 0.028270 2.035590 -0.193380
			CHANNELS 3 Zrotation Yrotation Xrotation
			JOINT Spine1
			{
				OFFSET 0.056720 2.048850 -0.042750
				CHANNELS 3 Zrotation Yrotation Xrotation
				JOINT Neck
				{
					OFFSET 0.000000 0.000000 0.000000
					CHANNELS 3 Zrotation Yrotation Xrotation
					JOINT Neck1
					{
						OFFSET -0.054170 1.746240 0.172020
						CHANNELS 3 Zrotation Yrotation Xrotation
						JOINT Head
						{
							OFFSET 0.104070 1.761360 -0.123970
							CHANNELS 3 Zrotation Yrotation Xrotation
							End Site
							{
								OFFSET 0.000000 0.000000 0.000000
							}
						}
					}
				}
				JOINT LeftShoulder
				{
					OFFSET 0.000000 0.000000 0.000000
					CHANNELS 3 Zrotation Yrotation Xrotation
					JOINT LeftArm
					{
						OFFSET 3.362410 1.200890 -0.311210
						CHANNELS 3 Zrotation Yrotation Xrotation
						JOINT LeftForeArm
						{
							OFFSET 4.983000 -0.000000 -0.000000
							CHANNELS 3 Zrotation Yrotation Xrotation
							JOINT LeftHand
							{
								OFFSET 3.483560 -0.000000 -0.000000
								CHANNELS 3 Zrotation Yrotation Xrotation
								JOINT LeftFingerBase
								{
									OFFSET 0.000000 0.000000 0.000000
									CHANNELS 3 Zrotation Yrotation Xrotation
									JOINT LeftHandIndex1
									{
										OFFSET 0.715260 -0.000000 -0.000000
										CHANNELS 3 Zrotation Yrotation Xrotation
										End Site
										{
											OFFSET 0.000000 0.000000 0.000000
										}
									}
								}
								JOINT LThumb
								{
									OFFSET 0.000000 0.000000 0.000000
									CHANNELS 3 Zrotation Yrotation Xrotation
									End Site
									{
										OFFSET 0.000000 0.000000 0.000000
									}
								}
							}
						}
					}
				}
				JOINT RightShoulder
				{
					OFFSET 0.000000 0.000000 0.000000
					CHANNELS 3 Zrotation Yrotation Xrotation
					JOINT RightArm
					{
						OFFSET -3.136600 1.374050 -0.404650
						CHANNELS 3 Zrotation Yrotation Xrotation
						JOINT RightForeArm
						{
							OFFSET -5.241900 -0.000000 -0.000000
							CHANNELS 3 Zrotation Yrotation Xrotation
							JOINT RightHand
							{
								OFFSET -3.444170 -0.000000 -0.000000
								CHANNELS 3 Zrotation Yrotation Xrotation
								JOINT RightFingerBase
								{
									OFFSET 0.000000 0.000000 0.000000
									CHANNELS 3 Zrotation Yrotation Xrotation
									JOINT RightHandIndex1
									{
										OFFSET -0.622530 -0.000000 -0.000000
										CHANNELS 3 Zrotation Yrotation Xrotation
										End Site
										{
											OFFSET 0.000000 0.000000 0.000000
										}
									}
								}
								JOINT RThumb
								{
									OFFSET 0.000000 0.000000 0.000000
									CHANNELS 3 Zrotation Yrotation Xrotation
									End Site
									{
										OFFSET 0.000000 0.000000 0.000000
									}
								}
							}
						}
					}
				}
			}
		}
	}
}
MOTION
Frames: 9
Frame Time: 0.008333
1.607630 66.728061 2.496185 148.079479 8.528196 -8.403395 76.317942 12.157963 -75.565739 -111.495677 16.081152 34.381196 -91.348482 -22.031184 -87.244872 -15.047655 -18.927413 53.443810 0.000000 0.000000 0.000000 -157.002400 50.458346 108.566367 85.102080 -22.162649 -14.656163 -12.362444 -31.405230 3.467243 174.244581 -51.472461 8.099264 -0.542000 4.716800 -13.102600 -112.435262 -40.691622 -52.532393 -107.346961 -26.645736 -126.563403 24.454964 19.586819 -164.681293 -73.117134 69.191257 -173.743690 -148.930882 -4.197555 -131.600580 3.775200 -1.816900 8.125100 -175.641157 20.384927 87.963177 109.923501 70.500346 83.469930 113.769685 42.028353 -152.176492 72.177930 -55.957242 56.922646 94.810463 -58.435163 5.465398 -7.125000 0.000000 0.000000 -3.433000 43.748900 0.106100 48.145242 -12.105101 15.719019 -151.707623 -42.401185 -64.821854 159.472499 -67.860490 -114.363056 -45.920692 69.115715 -36.012837 -116.625484 -24.578619 -12.028900 7.125000 0.000000 0.000000 -0.339700 -4.882500 -0.309600 
1.612120 66.726564 2.496934 -20.434835 66.210488 52.282230 -58.950350 -21.248708 -113.963134 -27.212280 89.754651 -31.617686 -152.607424 19.861376 -10.755960 -60.531537 38.225449 173.459381 0.000000 0.000000 0.000000 -0.702569 57.190557 97.471943 -99.328833 5.852630 -11.495478 -67.991372 -86.051829 75.214682 33.014850 -7.928941 131.393723 -0.525400 4.645200 -12.899200 60.826370 -35.944652 -117.068679 -22.538292 7.348734 -23.121643 -52.417742 -48.707589 66.723350 105.944604 -24.288741 13.184877 -164.502320 81.804723 -114.374306 3.758700 -1.812200 8.126800 -75.263182 -89.205717 -23.148249 -46.612195 73.640357 -171.304364 -176.645150 -59.459673 159.173207 59.024438 -29.878605 7.982707 117.875389 -3.150392 5.474100 -7.125000 0.000000 0.000000 -3.492300 43.801900 0.103400 -97.268112 41.609130 -6.992229 -47.132685 54.295287 5.700097 151.969008 14.306516 140.321725 119.612277 60.903224 -71.858496 142.216288 33.355224 168.062199 7.125000 0.000000 0.000000 -0.380700 -5.099000 -0.345400 
1.605759 66.723946 2.496559 -20.714364 -35.882308 130.339945 -84.166446 -54.307125 23.284777 56.989901 -64.564013 -116.199216 -58.536895 -0.223560 142.746773 75.022439 18.438974 162.790597 0.000000 0.000000 0.000000 23.919687 -2.525251 -145.084057 61.980920 40.706693 103.237612 -155.486533 -82.732934 15.620624 -15.902269 20.702541 95.555470 -0.511200 4.582800 -12.722400 -172.430727 -83.035272 -143.959406 172.009250 -86.661829 145.244304 -74.030911 -38.675487 10.169276 -61.752783 48.552979 15.450336 -121.312826 2.345211 -104.047424 3.756800 -1.810700 8.115300 173.877455 80.314193 85.499963 145.494359 42.991870 5.176480 14.340721 6.250920 -161.901899 150.156000 -63.632073 94.178259 151.171052 -79.015115 5.592496 -7.125000 0.000000 0.000000 -3.244000 43.944700 0.084600 138.492330 26.088164 57.743197 -153.247561 -19.730933 23.323396 56.392976 7.601550 -52.043798 -144.491828 63.404892 -40.322024 -111.695578 80.530443 168.123402 7.125000 0.000000 0.000000 -0.334100 -5.163700 -0.302700 
1.600896 66.726564 2.498056 -52.962722 -26.648760 -152.066196 57.580207 -41.527459 120.580260 37.823952 -57.853867 -35.363506 -94.517765 79.647428 -37.287751 120.459985 -74.692389 134.808666 0.000000 0.000000 0.000000 51.097498 88.483491 -140.493005 -45.266802 -32.317762 165.702296 -123.750554 14.349303 -11.663309 90.013287 21.515837 117.878493 -0.540600 4.710800 -13.085500 80.750501 -48.670468 -88.882695 -100.925674 -67.560112 167.368040 -55.653816 -56.470884 -145.098583 -165.139209 15.206111 45.737045 -118.371810 -39.996986 82.524157 3.712300 -1.818400 8.126900 59.469837 30.887350 -107.218568 -144.704120 -20.425305 -124.800978 112.926782 -72.519602 162.795151 83.252776 -60.071116 -2.910882 159.634448 26.874289 5.563799 -7.125000 0.000000 0.000000 -3.278100 43.895900 0.089400 2.586481 -73.331058 -16.093597 156.765846 -74.726766 122.174989 71.848249 57.673998 -167.151755 42.908887 -21.464975 23.634301 14.365663 21.273233 -11.794599 7.125000 0.000000 0.000000 -0.200900 -5.173500 -0.182000 
1.606134 66.728809 2.495811 -107.157268 -87.695348 -4.740725 67.516296 49.410775 105.175828 7.799385 -53.229835 47.324414 158.773498 -42.737259 106.847794 -109.695176 54.991522 -174.705473 0.000000 0.000000 0.000000 18.265104 -44.677392 72.579705 108.023212 32.372947 89.129346 87.710545 79.072236 90.743752 16.015758 -70.324726 -6.349579 -0.567800 4.826100 -13.413200 122.738783 32.734376 36.454147 30.395382 40.958774 86.884421 130.255571 5.373432 48.536141 52.439512 84.033101 178.234691 178.724365 80.410360 164.739403 3.726000 -1.811400 8.094600 -134.013075 -20.836952 -167.056007 87.152956 -5.171242 -97.457683 131.424262 77.208280 -18.405892 -7.095543 52.142159 67.080227 45.684376 -71.213587 5.510000 -7.125000 0.000000 0.000000 -3.304400 43.784000 0.099300 -177.157102 50.596124 85.419982 64.017545 70.935440 -24.574345 42.812220 62.382322 26.062423 35.783995 -52.604140 21.806224 18.935844 -21.179564 -11.684900 7.125000 0.000000 0.000000 -0.111100 -5.284200 -0.100400 
1.609127 66.735169 2.497682 157.195818 80.592439 -113.515022 -126.189137 8.704845 36.264472 46.591037 -61.981692 6.969925 93.955712 -33.829251 68.968640 -15.512154 -13.230740 -123.282388 0.000000 0.000000 0.000000 174.895869 57.790384 139.971249 -84.110175 -57.602511 24.316005 141.519334 5.986600 44.318563 86.996399 30.874644 -88.352053 -0.558700 4.787900 -13.304500 -159.483988 -43.455932 121.604432 -124.800294 58.078343 -171.055600 -157.110047 -72.271533 37.596645 65.508189 2.679433 72.836546 48.236131 2.138633 -0.768698 3.732500 -1.817800 8.088300 53.945396 82.181859 -46.843364 47.670150 76.744987 47.564074 8.741095 -42.794109 -15.371906 85.024392 -12.045806 19.085938 92.372477 -39.404628 5.490801 -7.125000 0.000000 0.000000 -3.420400 43.802100 0.101200 -46.999161 -1.533126 101.643335 5.986595 -27.508146 108.673173 -146.048506 -77.071033 -172.280034 133.814674 34.623788 -55.218258 -123.358732 37.748820 168.389511 7.125000 0.000000 0.000000 0.005900 -5.298100 0.005300 
1.608753 66.734421 2.502545 -95.206883 -34.203336 140.534377 91.598901 -34.321063 134.872725 14.513089 54.335583 -8.524847 23.618408 62.584204 -104.389733 -80.426745 -25.675178 113.178217 0.000000 0.000000 0.000000 140.231851 -84.341427 -126.782403 10.690500 74.218540 158.284350 177.022615 -20.598724 45.284074 141.795276 -0.019916 -63.245412 -0.542300 4.718200 -13.106400 -117.754620 0.840942 -172.711319 33.073357 -77.080569 -38.526856 3.724097 72.393603 -159.235063 57.299227 22.679562 24.975848 169.827557 -82.227656 -152.889311 3.748900 -1.807800 8.089900 14.053024 -63.400878 -163.726778 170.396195 -7.958057 -7.177402 -90.358530 44.209151 158.998103 -73.945803 6.436379 -51.552414 -171.211495 73.785717 -174.472999 -7.125000 0.000000 0.000000 -3.508000 43.935400 0.092300 108.208830 89.985944 170.715232 -112.131340 -42.706991 -98.119773 -42.226104 -58.451837 9.108373 6.490593 -43.565653 6.770139 -11.103260 -16.853819 -11.489300 7.125000 0.000000 0.000000 0.143100 -5.379900 0.129000 
1.604637 66.732176 2.504042 -131.346033 37.588820 149.727997 0.667981 -78.363410 7.009484 -157.586091 -9.884854 -52.836477 -128.470740 14.222355 -132.565756 46.985283 69.408203 -23.719764 0.000000 0.000000 0.000000 147.539337 6.669500 91.482587 145.327000 14.913417 104.769979 -14.944362 60.044633 28.792255 -174.236383 2.023895 -88.929871 -0.543100 4.721700 -13.116500 -102.209235 80.383094 28.439901 130.347783 -41.192990 174.549923 -175.583714 12.901769 108.063228 -138.796619 13.100662 -40.395976 5.046985 12.801168 94.991180 3.753500 -1.808300 8.098800 65.655833 -33.679226 2.749728 145.667301 87.853189 -111.529080 -96.624189 -25.036783 174.529930 -6.939421 -12.364547 10.110005 23.707469 10.550397 5.513800 -7.125000 0.000000 0.000000 -3.410900 43.850900 0.096900 119.736510 -56.110773 76.857355 178.212905 -56.331224 120.667479 -23.816313 28.786787 -163.104596 -20.907193 21.123679 19.471110 -49.238113 46.857605 -11.441898 7.125000 0.000000 0.000000 0.308000 -5.287400 0.278300 
1.599773 66.730306 2.507035 72.071818 8.813727 125.847436 128.944125 58.008750 -127.873171 67.623669 -88.572256 -20.543538 -69.530251 75.977221 -161.439636 -52.967246 73.898138 76.122044 0.000000 0.000000 0.000000 4.689944 46.567960 -179.695155 -101.136042 40.772404 121.264902 62.040852 3.827231 75.353134 -0.320284 -27.030261 -63.970979 -0.543600 4.723600 -13.121800 -63.548878 -50.609936 70.195411 4.474802 -89.444100 -34.894185 94.898393 51.034066 39.413787 109.707113 -82.801056 68.993290 65.312100 60.297896 -71.107968 3.751500 -1.808100 8.109000 -167.791729 47.055107 104.047291 67.500244 63.336097 -147.204460 -23.682478 11.215100 -16.064702 28.326502 -50.563176 -106.753659 176.232851 66.454568 5.516600 -7.125000 0.000000 0.000000 -3.304200 43.799300 0.098000 114.183388 34.010820 -31.330031 126.194973 60.730666 -177.698574 87.670657 -39.576892 -39.506368 -130.567288 -14.715986 -21.633707 -163.892145 -2.451358 -11.402600 7.125000 0.000000 0.000000 0.402100 -5.257800 0.363600 
